<svg width="70" height="70" viewBox="0 0 70 70" fill="none" xmlns="http://www.w3.org/2000/svg">
<circle cx="35" cy="35" r="35" fill="#B97B35" fill-opacity="0.7"/>
<path d="M14.5082 38.3346L32.6204 56.4468C34.0673 57.8937 35.7137 59.1282 37.509 60.1109C38.4072 60.6027 39.2667 61.1571 40.0839 61.7683C40.9011 62.3814 41.6742 63.0516 42.3977 63.7751L42.7764 64.1538L60.1239 46.8065C60.1239 46.8065 58.5528 36.7598 58.0409 34.4645C57.5279 32.1701 56.376 30.018 54.6452 28.287L46.0822 19.724C44.9892 18.631 43.2179 18.6301 42.1248 19.7231C41.3471 20.5008 40.9344 21.5056 40.8856 22.5231C40.8829 22.5902 40.8811 22.6583 40.8811 22.7263C40.882 23.8138 41.2956 24.9004 42.1257 25.7305L26.2416 9.8465C25.5228 9.12771 24.5815 8.76917 23.6401 8.76917C22.6979 8.77008 21.7574 9.12953 21.0386 9.84832C20.4273 10.4596 20.0771 11.2327 19.987 12.0307C19.8647 13.0906 20.2049 14.1937 21.0065 15.0156L18.7984 12.8075C18.7873 12.7964 18.7763 12.7854 18.7643 12.7754C18.0501 12.0776 17.1234 11.7301 16.1968 11.7301C15.2554 11.7301 14.3131 12.0896 13.5953 12.8075C12.984 13.4187 12.6338 14.1919 12.5437 14.9898C12.4195 16.0644 12.7708 17.1842 13.5962 18.0097L16.2758 20.6893C15.5578 19.9713 14.6166 19.6129 13.6752 19.6129C12.7339 19.6129 11.7925 19.9714 11.0746 20.6893C10.4634 21.3006 10.1122 22.0746 10.0221 22.8726C9.89797 23.9472 10.2492 25.0669 11.0737 25.8914L19.0631 33.8808C17.8248 32.6425 15.8025 32.5763 14.5449 33.7954C13.8978 34.4222 13.576 35.2515 13.5751 36.0834C13.576 36.8969 13.8867 37.7131 14.5082 38.3346Z" fill="#FCD09F"/>
<path d="M42.1256 25.7304L49.2076 32.8123C49.4797 32.5402 49.6147 32.1845 49.6147 31.8278C49.6138 31.4721 49.4786 31.1163 49.2067 30.8442L40.8855 22.5231C40.8828 22.5902 40.881 22.6583 40.881 22.7263C40.8819 23.8137 41.2956 24.9003 42.1256 25.7304Z" fill="#E2B991"/>
<path d="M18.7643 12.7754L34.5361 28.5472C34.8082 28.2751 34.9434 27.9193 34.9434 27.5627C34.9425 27.207 34.8073 26.8512 34.5352 26.5791L19.987 12.0308C19.8647 13.0907 20.2049 14.1938 21.0065 15.0156L18.7984 12.8075C18.7874 12.7965 18.7763 12.7856 18.7643 12.7754Z" fill="#E2B991"/>
<path d="M13.5963 18.0096L30.4307 34.844C30.7028 34.5719 30.838 34.2161 30.8379 33.8595C30.837 33.5037 30.7019 33.148 30.4298 32.8759L12.5437 14.9899C12.4196 16.0645 12.7708 17.1842 13.5963 18.0096Z" fill="#E2B991"/>
<path d="M11.0739 25.8914L26.5799 41.3974C26.852 41.1253 26.9871 40.7696 26.9872 40.4129C26.9863 40.0571 26.8511 39.7014 26.579 39.4293L10.0221 22.8724C9.89812 23.947 10.2493 25.0668 11.0739 25.8914Z" fill="#E2B991"/>
</svg>
