<svg width="70" height="70" viewBox="0 0 70 70" fill="none" xmlns="http://www.w3.org/2000/svg">
<circle cx="35" cy="35" r="35" fill="#DD9029" fill-opacity="0.7"/>
<path d="M19.102 17.5062V7.59057C19.102 6.25062 19.638 5 20.978 5H27.1417C28.4817 5 29.8216 6.25062 29.8216 7.59057V10.3598" fill="#5E6664"/>
<path d="M20.8886 5H27.1417C28.4817 5 29.8216 6.25062 29.8216 7.59057V10.3598" fill="#2F423F"/>
<path d="M53.0474 17.5062V7.59057C53.0474 6.25062 52.2435 5 50.9035 5H44.6504C43.3105 5 42.3278 6.25062 42.3278 7.59057V10.3598" fill="#2F423F"/>
<path d="M17.3154 55.9181H14.5462C11.4196 55.9181 11.9556 53.0595 11.9556 49.933V38.3201C11.9556 35.1935 14.3675 32.7816 17.5834 32.7816" fill="#FFC114"/>
<path d="M11.9556 46.0025V49.8436C11.9556 53.0595 11.4196 55.9181 14.5462 55.9181H17.3154L17.4941 40.464L11.9556 46.0025Z" fill="#FCA12A"/>
<path d="M54.834 55.9181H57.6033C60.7298 55.9181 60.1938 53.0595 60.1938 49.933V38.3201C60.1938 35.1935 57.7819 32.7816 54.5661 32.7816" fill="#FCA12A"/>
<path d="M55.906 50.1117C55.906 55.7395 51.3502 60.3847 45.7224 60.3847H26.5164C20.8886 60.3847 16.3328 55.7395 16.3328 50.1117L18.3874 20.5435C18.298 14.9157 22.8539 10.3599 28.4817 10.3599H43.5784C49.2062 10.3599 53.7621 14.9157 53.7621 20.5435L55.906 50.1117Z" fill="#F15249"/>
<path d="M51.2608 46.5385C51.2608 50.737 47.8663 54.1315 43.6678 54.1315H29.375C25.1765 54.1315 21.7819 50.737 21.7819 46.5385C21.7819 42.34 25.1765 38.9454 29.375 38.9454H43.6678C47.8663 38.9454 51.2608 42.34 51.2608 46.5385Z" fill="#45C2B3"/>
<path d="M53.8514 20.5435C53.8514 14.8264 49.2956 10.3599 43.6678 10.3599H36.0747V39.1241L29.2857 55.0249L35.8961 60.3847H45.633C51.2608 60.3847 55.8167 55.7395 55.8167 50.1117L53.8514 20.5435Z" fill="#C93131"/>
<path d="M50.8142 46.9851C50.8142 51.273 47.3303 55.0248 43.0425 55.0248H35.8961H29.107C24.8191 55.0248 21.3353 51.273 21.3353 46.9851C21.3353 42.6973 20.71 38.9454 24.9978 38.9454H36.0747H47.1517C51.3502 38.9454 50.8142 42.6973 50.8142 46.9851Z" fill="#3CC676"/>
<path d="M36.0747 38.9454H47.0623C51.3502 38.9454 50.7249 42.6973 50.7249 46.9851C50.7249 51.273 47.241 55.0248 42.9531 55.0248H35.8067H28.9283" fill="#0AA06E"/>
<path d="M37.772 33.4963C36.8787 34.3896 35.3601 34.3896 34.3775 33.4963L29.2856 28.4045C28.3923 27.5112 28.3923 25.9926 29.2856 25.01L34.3775 19.9181C35.2708 19.0248 36.7894 19.0248 37.772 19.9181L42.8638 25.01C43.7571 25.9033 43.7571 27.4219 42.8638 28.4045L37.772 33.4963Z" fill="#C93131"/>
<path d="M37.504 31.4417C36.7 32.2457 35.4494 32.2457 34.6455 31.4417L30.2683 27.0645C29.4643 26.2606 29.4643 25.0099 30.2683 24.206L34.6455 19.8288C35.4494 19.0248 36.7 19.0248 37.504 19.8288L41.8812 24.206C42.6852 25.0099 42.6852 26.2606 41.8812 27.0645L37.504 31.4417Z" fill="#FFC114"/>
<path d="M35.9854 19.2928C36.5214 19.2928 37.0574 19.4715 37.504 19.9182L41.8812 24.2953C42.6852 25.0993 42.6852 26.3499 41.8812 27.1539L37.504 31.5311C37.1467 31.8884 36.6107 32.1564 36.0747 32.1564" fill="#FF8A15"/>
<path d="M35.1814 27.2431C35.1814 27.5111 34.6455 27.7791 34.2881 27.7791C33.9308 27.7791 33.3948 27.5111 33.3948 27.2431V24.1165C33.3948 23.8486 33.9308 23.5806 34.2881 23.5806C34.6455 23.5806 35.1814 23.8486 35.1814 24.1165V27.2431Z" fill="#2F423F"/>
<path d="M38.7546 27.2431C38.7546 27.5111 38.2187 27.7791 37.8613 27.7791C37.504 27.7791 36.968 27.5111 36.968 27.2431V24.1165C36.968 23.8486 37.504 23.5806 37.8613 23.5806C38.2187 23.5806 38.7546 23.8486 38.7546 24.1165V27.2431Z" fill="#2F423F"/>
</svg>
