<svg width="70" height="70" viewBox="0 0 70 70" fill="none" xmlns="http://www.w3.org/2000/svg">
<circle cx="35" cy="35" r="35" fill="#4EAF0E" fill-opacity="0.7"/>
<path d="M42.1408 23.1208H27.8488V25.8006H42.1408V23.1208Z" fill="#05B1E0"/>
<path d="M42.1408 23.1208H34.1016V25.8006H42.1408V23.1208Z" fill="#2E9BCC"/>
<path d="M51.0733 63.853C51.0733 66.1754 49.0189 65.9968 46.6964 65.9968H23.3826C21.0602 65.9968 18.9164 66.1754 18.9164 63.853V29.7308C18.9164 27.4084 21.1495 25.8005 23.3826 25.8005H46.6964C49.0189 25.8005 51.0733 27.4084 51.0733 29.7308V63.853Z" fill="#70C638"/>
<path d="M23.3826 25.8005H46.6964C49.0189 25.8005 51.0733 27.4084 51.0733 29.7308V63.853C51.0733 66.1754 49.0189 65.9968 46.6964 65.9968H23.3826" fill="#4EAF0E"/>
<path d="M46.7857 25.8005C49.1082 25.8005 51.0733 27.4084 51.0733 29.7308V63.853C51.0733 66.1754 49.1082 65.9968 46.7857 65.9968" fill="#3F9109"/>
<path d="M35.0842 36.2517C29.7247 36.2517 25.3477 40.6286 25.3477 45.9881C25.3477 51.3476 29.7247 55.7246 35.0842 55.7246C40.4437 55.7246 44.8206 51.3476 44.8206 45.9881C44.8206 40.6286 40.4437 36.2517 35.0842 36.2517ZM35.0842 49.1145C33.2977 49.1145 31.8685 47.6853 31.8685 45.8988C31.8685 44.1123 33.2977 42.6831 35.0842 42.6831C36.8707 42.6831 38.2999 44.1123 38.2999 45.8988C38.2999 47.6853 36.7813 49.1145 35.0842 49.1145Z" fill="#074568"/>
<path d="M44.8206 22.4063C44.8206 23.1209 44.5526 24.0141 43.9273 24.0141H26.241C25.6157 24.0141 25.1691 23.1209 25.1691 22.4063V11.5979C25.1691 10.794 25.5264 10.6154 26.241 10.6154H43.9273C44.5526 10.6154 44.8206 10.794 44.8206 11.5979V22.4063Z" fill="#074568"/>
<path d="M26.0623 10.6154H43.9273C44.5526 10.6154 44.8206 10.794 44.8206 11.5979V22.4956C44.8206 23.2102 44.5526 24.1034 43.9273 24.1034H26.0623" fill="#022B3A"/>
<path d="M43.838 20.8877C43.838 21.0663 43.6593 21.3343 43.57 21.3343H26.5983C26.4196 21.3343 26.3303 21.0663 26.3303 20.8877C26.3303 20.709 26.5089 20.441 26.5983 20.441H43.57C43.7487 20.441 43.838 20.709 43.838 20.8877Z" fill="#074568"/>
<path d="M43.838 12.8485C43.838 13.0271 43.6593 13.2951 43.57 13.2951H26.5983C26.4196 13.2951 26.3303 13.0271 26.3303 12.8485C26.3303 12.6698 26.5089 12.4019 26.5983 12.4019H43.57C43.7487 12.4019 43.838 12.6698 43.838 12.8485Z" fill="#074568"/>
<path d="M35.0842 36.2516C35.0842 36.2516 34.9948 36.2516 35.0842 36.2516L34.9948 42.7723H35.0842C36.8707 42.7723 38.2999 44.2015 38.2999 45.988C38.2999 47.7745 36.8707 49.2037 35.0842 49.2037H34.9948V55.7244H35.0842C40.4437 55.7244 44.8206 51.3475 44.8206 45.988C44.8206 40.6285 40.4437 36.2516 35.0842 36.2516Z" fill="#022B3A"/>
<path d="M26.0623 18.0294C26.0623 18.3867 25.5264 18.6546 25.1691 18.6546C24.8118 18.6546 24.2758 18.3867 24.2758 18.0294V15.9749C24.2758 15.6176 24.8118 15.3496 25.1691 15.3496C25.5264 15.3496 26.0623 15.6176 26.0623 15.9749V18.0294Z" fill="#022B3A"/>
<path d="M48.3936 26.6938C48.3936 27.2297 48.0363 27.587 47.5003 27.587H22.4893C21.9534 27.587 21.5961 27.2297 21.5961 26.6938C21.5961 26.1578 21.9534 25.8005 22.4893 25.8005H47.5003C48.0363 25.8005 48.3936 26.1578 48.3936 26.6938Z" fill="#70C638"/>
<path d="M21.1495 18.1187C21.6428 18.1187 22.0427 17.7187 22.0427 17.2254C22.0427 16.7321 21.6428 16.3322 21.1495 16.3322C20.6561 16.3322 20.2562 16.7321 20.2562 17.2254C20.2562 17.7187 20.6561 18.1187 21.1495 18.1187Z" fill="#3F9109"/>
<path d="M16.4152 18.1187C16.9086 18.1187 17.3085 17.7187 17.3085 17.2254C17.3085 16.7321 16.9086 16.3322 16.4152 16.3322C15.9219 16.3322 15.522 16.7321 15.522 17.2254C15.522 17.7187 15.9219 18.1187 16.4152 18.1187Z" fill="#70C638"/>
<path d="M11.681 18.1187C12.1743 18.1187 12.5743 17.7187 12.5743 17.2254C12.5743 16.7321 12.1743 16.3322 11.681 16.3322C11.1877 16.3322 10.7878 16.7321 10.7878 17.2254C10.7878 17.7187 11.1877 18.1187 11.681 18.1187Z" fill="#3F9109"/>
<path d="M6.85745 18.1187C7.35078 18.1187 7.7507 17.7187 7.7507 17.2254C7.7507 16.7321 7.35078 16.3322 6.85745 16.3322C6.36412 16.3322 5.9642 16.7321 5.9642 17.2254C5.9642 17.7187 6.36412 18.1187 6.85745 18.1187Z" fill="#70C638"/>
<path d="M2.12323 18.1187C2.61656 18.1187 3.01648 17.7187 3.01648 17.2254C3.01648 16.7321 2.61656 16.3322 2.12323 16.3322C1.6299 16.3322 1.22998 16.7321 1.22998 17.2254C1.22998 17.7187 1.6299 18.1187 2.12323 18.1187Z" fill="#3F9109"/>
<path d="M16.4152 22.0489C16.9086 22.0489 17.3085 21.649 17.3085 21.1557C17.3085 20.6624 16.9086 20.2625 16.4152 20.2625C15.9219 20.2625 15.522 20.6624 15.522 21.1557C15.522 21.649 15.9219 22.0489 16.4152 22.0489Z" fill="#3F9109"/>
<path d="M11.681 22.049C12.1743 22.049 12.5743 21.649 12.5743 21.1557C12.5743 20.6624 12.1743 20.2625 11.681 20.2625C11.1877 20.2625 10.7878 20.6624 10.7878 21.1557C10.7878 21.649 11.1877 22.049 11.681 22.049Z" fill="#70C638"/>
<path d="M6.85745 22.049C7.35078 22.049 7.7507 21.649 7.7507 21.1557C7.7507 20.6624 7.35078 20.2625 6.85745 20.2625C6.36412 20.2625 5.9642 20.6624 5.9642 21.1557C5.9642 21.649 6.36412 22.049 6.85745 22.049Z" fill="#3F9109"/>
<path d="M2.12323 22.049C2.61656 22.049 3.01648 21.649 3.01648 21.1557C3.01648 20.6624 2.61656 20.2625 2.12323 20.2625C1.6299 20.2625 1.22998 20.6624 1.22998 21.1557C1.22998 21.649 1.6299 22.049 2.12323 22.049Z" fill="#70C638"/>
<path d="M11.681 25.8899C12.1743 25.8899 12.5743 25.49 12.5743 24.9966C12.5743 24.5033 12.1743 24.1034 11.681 24.1034C11.1877 24.1034 10.7878 24.5033 10.7878 24.9966C10.7878 25.49 11.1877 25.8899 11.681 25.8899Z" fill="#3F9109"/>
<path d="M6.85745 25.8899C7.35078 25.8899 7.7507 25.49 7.7507 24.9966C7.7507 24.5033 7.35078 24.1034 6.85745 24.1034C6.36412 24.1034 5.9642 24.5033 5.9642 24.9966C5.9642 25.49 6.36412 25.8899 6.85745 25.8899Z" fill="#70C638"/>
<path d="M2.12323 25.8899C2.61656 25.8899 3.01648 25.49 3.01648 24.9966C3.01648 24.5033 2.61656 24.1034 2.12323 24.1034C1.6299 24.1034 1.22998 24.5033 1.22998 24.9966C1.22998 25.49 1.6299 25.8899 2.12323 25.8899Z" fill="#3F9109"/>
<path d="M16.4152 14.099C16.9086 14.099 17.3085 13.6991 17.3085 13.2057C17.3085 12.7124 16.9086 12.3125 16.4152 12.3125C15.9219 12.3125 15.522 12.7124 15.522 13.2057C15.522 13.6991 15.9219 14.099 16.4152 14.099Z" fill="#3F9109"/>
<path d="M11.681 14.099C12.1743 14.099 12.5743 13.6991 12.5743 13.2057C12.5743 12.7124 12.1743 12.3125 11.681 12.3125C11.1877 12.3125 10.7878 12.7124 10.7878 13.2057C10.7878 13.6991 11.1877 14.099 11.681 14.099Z" fill="#70C638"/>
<path d="M6.85745 14.099C7.35078 14.099 7.7507 13.6991 7.7507 13.2057C7.7507 12.7124 7.35078 12.3125 6.85745 12.3125C6.36412 12.3125 5.9642 12.7124 5.9642 13.2057C5.9642 13.6991 6.36412 14.099 6.85745 14.099Z" fill="#3F9109"/>
<path d="M2.12323 14.099C2.61656 14.099 3.01648 13.6991 3.01648 13.2057C3.01648 12.7124 2.61656 12.3125 2.12323 12.3125C1.6299 12.3125 1.22998 12.7124 1.22998 13.2057C1.22998 13.6991 1.6299 14.099 2.12323 14.099Z" fill="#70C638"/>
</svg>
