<svg width="30" height="30" viewBox="0 0 30 30" fill="none" xmlns="http://www.w3.org/2000/svg">
<path d="M30 15C30 23.2742 23.2742 30 15 30C6.72581 30 0 23.2742 0 15C0 6.72581 6.72581 0 15 0C23.2742 0 30 6.72581 30 15Z" fill="#1BCEB8"/>
<path d="M15 0C23.2742 0 30 6.72581 30 15C30 23.2742 23.2742 30 15 30" fill="#09ADB5"/>
<path d="M4.40323 4.40321C10.2581 -1.45162 19.7419 -1.45162 25.5968 4.40321C31.4516 10.2581 31.4516 19.7419 25.5968 25.5968" fill="#0DBFBA"/>
<path d="M21.3387 15.4839H8.66126C8.27416 15.4839 7.93546 15.3871 7.93546 15C7.93546 14.6129 8.27416 14.5161 8.66126 14.5161H21.3387C21.7258 14.5161 22.0645 14.6129 22.0645 15C22.0645 15.3871 21.7258 15.4839 21.3387 15.4839Z" fill="#EEFFFF"/>
<path d="M15 22.0161C14.6129 22.0161 14.5161 21.7258 14.5161 21.2903V8.66128C14.5161 8.27419 14.6129 7.93548 15 7.93548C15.3871 7.93548 15.4839 8.2258 15.4839 8.66128V21.3387C15.4839 21.7258 15.3871 22.0161 15 22.0161Z" fill="#EEFFFF"/>
</svg>
