<svg width="1580" height="1029" viewBox="0 0 1580 1029" fill="none" xmlns="http://www.w3.org/2000/svg">
<path d="M1580 571.21L792.776 1028.67L0.55542 571.21L787.78 113.754L1580 571.21Z" fill="#825B2F"/>
<path d="M1580 457.956L792.776 915.69L0.55542 457.956L787.78 0.5L1580 457.956Z" fill="#9ECC3B"/>
<path d="M1580 457.956L1579.72 571.209L792.498 1028.67L792.775 915.689L1580 457.956Z" fill="#79C143"/>
<path d="M792.776 915.689L792.498 1028.67L0 571.209L0.555165 457.956L792.776 915.689Z" fill="#B9D233"/>
<path d="M151.838 444.632C139.347 444.632 139.347 464.063 151.838 464.063C164.33 464.063 164.33 444.632 151.838 444.632Z" fill="#79C143"/>
<path d="M290.628 526.24C278.137 526.24 278.137 545.67 290.628 545.67C303.12 545.67 303.12 526.24 290.628 526.24Z" fill="#79C143"/>
<path d="M512.695 372.46C500.203 372.46 500.203 391.89 512.695 391.89C525.186 391.89 525.186 372.46 512.695 372.46Z" fill="#79C143"/>
<path d="M777.232 452.682C762.798 452.682 762.798 474.889 777.232 474.889C791.666 474.889 791.666 452.682 777.232 452.682Z" fill="#79C143"/>
<path d="M782.783 702.504C768.348 702.504 768.348 724.711 782.783 724.711C797.217 724.711 797.217 702.504 782.783 702.504Z" fill="#79C143"/>
<path d="M601.521 589.528C587.086 589.528 587.086 611.735 601.521 611.735C615.955 611.735 615.677 589.528 601.521 589.528Z" fill="#79C143"/>
<path d="M784.725 187.87C799.159 187.87 799.159 165.663 784.725 165.663C770.291 165.663 770.291 187.87 784.725 187.87Z" fill="#79C143"/>
<path d="M1101.17 381.899C1081.46 381.899 1081.46 412.433 1101.17 412.433C1120.88 412.433 1120.88 381.899 1101.17 381.899Z" fill="#79C143"/>
<path d="M1119.49 596.468C1099.78 596.468 1099.78 627.002 1119.49 627.002C1139.2 627.002 1139.2 596.468 1119.49 596.468Z" fill="#79C143"/>
<path d="M936.285 316.944C916.576 316.944 916.576 347.478 936.285 347.478C955.993 347.478 955.993 316.944 936.285 316.944Z" fill="#79C143"/>
<path d="M399.719 511.253C380.011 511.253 380.011 541.787 399.719 541.787C419.428 541.787 419.428 511.253 399.719 511.253Z" fill="#79C143"/>
<path d="M392.224 285.579C372.516 285.579 372.516 316.113 392.224 316.113C411.933 316.113 411.933 285.579 392.224 285.579Z" fill="#79C143"/>
<path d="M927.125 563.992C911.025 563.992 911.025 588.975 927.125 588.975C943.224 588.975 943.224 563.992 927.125 563.992Z" fill="#79C143"/>
<path d="M1289.93 500.148C1277.44 500.148 1277.44 519.579 1289.93 519.579C1302.42 519.579 1302.42 500.148 1289.93 500.148Z" fill="#79C143"/>
<path d="M1121.43 273.641C1133.93 273.641 1133.93 254.21 1121.43 254.21C1108.94 254.21 1108.94 273.641 1121.43 273.641Z" fill="#79C143"/>
<path d="M629.279 266.979C616.788 266.979 616.788 286.409 629.279 286.409C641.771 286.409 641.771 266.979 629.279 266.979Z" fill="#79C143"/>
<path d="M801.38 792.722C788.889 792.722 788.889 812.153 801.38 812.153C813.871 812.153 813.871 792.722 801.38 792.722Z" fill="#79C143"/>
<path d="M819.701 66.2883C810.818 66.2883 810.818 80.1675 819.701 80.1675C828.861 80.1675 828.861 66.2883 819.701 66.2883Z" fill="#79C143"/>
<path d="M997.354 236.447C988.471 236.447 988.471 250.326 997.354 250.326C1006.51 250.326 1006.51 236.447 997.354 236.447Z" fill="#79C143"/>
<path d="M756.967 343.868C748.085 343.868 748.085 357.748 756.967 357.748C765.85 357.748 765.85 343.868 756.967 343.868Z" fill="#79C143"/>
<path d="M1017.89 501.259C1009.01 501.259 1009.01 515.138 1017.89 515.138C1026.78 515.138 1026.78 501.259 1017.89 501.259Z" fill="#79C143"/>
<path d="M679.244 688.07C670.361 688.07 670.361 701.949 679.244 701.949C688.127 701.949 688.127 688.07 679.244 688.07Z" fill="#79C143"/>
<path d="M451.627 667.807C442.745 667.807 442.745 681.686 451.627 681.686C460.51 681.686 460.51 667.807 451.627 667.807Z" fill="#79C143"/>
<path d="M1041.77 695.565C1032.88 695.565 1032.88 709.444 1041.77 709.444C1050.93 709.444 1050.93 695.565 1041.77 695.565Z" fill="#79C143"/>
<path d="M1304.64 369.686C1295.76 369.686 1295.76 383.565 1304.64 383.565C1313.52 383.565 1313.52 369.686 1304.64 369.686Z" fill="#79C143"/>
<path d="M1238.02 606.74C1229.14 606.74 1229.14 620.619 1238.02 620.619C1246.9 620.619 1246.9 606.74 1238.02 606.74Z" fill="#79C143"/>
<path d="M1191.66 469.613C1182.78 469.613 1182.78 483.492 1191.66 483.492C1200.82 483.492 1200.82 469.613 1191.66 469.613Z" fill="#79C143"/>
<path d="M643.991 469.613C635.108 469.613 635.108 483.492 643.991 483.492C652.873 483.492 652.873 469.613 643.991 469.613Z" fill="#79C143"/>
<path d="M305.34 388.283C296.458 388.283 296.458 402.162 305.34 402.162C314.223 402.162 314.223 388.283 305.34 388.283Z" fill="#79C143"/>
</svg>
