<svg width="50" height="50" viewBox="0 0 50 50" fill="none" xmlns="http://www.w3.org/2000/svg">
<path d="M50 25.0007C50 11.1924 38.807 0.000404358 25.0004 0.000404358C11.1931 0.000404358 0 11.1923 0 25.0007C0 38.8068 11.193 49.9997 25.0004 49.9997C38.807 49.9996 50 38.8067 50 25.0007Z" fill="#E04F5F"/>
<path d="M26.1441 12.9915C25.8005 12.805 25.3823 12.8214 25.0544 13.0343L15.4671 19.2613H11.9234C11.3344 19.2613 10.8569 19.7387 10.8569 20.3277V29.6722C10.8569 30.2613 11.3344 30.7387 11.9234 30.7387H15.4671L25.0544 36.9656C25.2306 37.08 25.4327 37.1377 25.6354 37.1377C25.81 37.1377 25.9852 37.0948 26.1442 37.0084C26.4878 36.8218 26.7019 36.4622 26.7019 36.0711V13.9289C26.7018 13.5379 26.4877 13.178 26.1441 12.9915Z" fill="white"/>
<path d="M35.8156 24.9999L38.8776 21.938C39.2318 21.5837 39.2318 21.0096 38.8776 20.6553C38.5233 20.3011 37.9491 20.3011 37.5949 20.6553L34.533 23.7173L31.471 20.6553C31.1168 20.3011 30.5426 20.3011 30.1884 20.6553C29.8342 21.0096 29.8342 21.5837 30.1884 21.938L33.2504 24.9999L30.1885 28.0619C29.8343 28.4162 29.8343 28.9903 30.1885 29.3446C30.3656 29.5217 30.5977 29.6103 30.8298 29.6103C31.0619 29.6103 31.294 29.5217 31.4712 29.3446L34.5331 26.2826L37.595 29.3446C37.7721 29.5217 38.0042 29.6103 38.2363 29.6103C38.4684 29.6103 38.7005 29.5217 38.8777 29.3446C39.2319 28.9903 39.2319 28.4162 38.8777 28.0619L35.8156 24.9999Z" fill="white"/>
</svg>
