<svg width="70" height="70" viewBox="0 0 70 70" fill="none" xmlns="http://www.w3.org/2000/svg">
<circle cx="35" cy="35" r="35" fill="#83C955" fill-opacity="0.7"/>
<path d="M64.3382 13.2026H8.89038V60.0765H64.3382V13.2026Z" fill="#47C796"/>
<path fill-rule="evenodd" clip-rule="evenodd" d="M8.8904 9.75525H64.3382L68.2286 24.9791H5L8.8904 9.75525Z" fill="#FF9274"/>
<path fill-rule="evenodd" clip-rule="evenodd" d="M67.7136 22.9625L68.2286 24.9793H5L5.51545 22.9625H67.7136Z" fill="#ED7351"/>
<path d="M64.3382 46.2975H8.89038V60.0764H64.3382V46.2975Z" fill="#19A871"/>
<path fill-rule="evenodd" clip-rule="evenodd" d="M12.669 60.0769H29.706V34.3272C29.706 24.5833 12.669 24.4669 12.669 34.3272V60.0769Z" fill="#19A871"/>
<path fill-rule="evenodd" clip-rule="evenodd" d="M14.1399 60.0769H28.2351V33.8282C28.2351 26.4874 14.1399 26.8283 14.1399 33.8282V60.0769Z" fill="#9FECFF"/>
<path fill-rule="evenodd" clip-rule="evenodd" d="M14.1399 48.6207L28.2351 34.8441V33.4227L14.1399 47.1993V48.6207Z" fill="#DEF8FF"/>
<path fill-rule="evenodd" clip-rule="evenodd" d="M14.1399 52.8848L28.2351 39.1082V36.2655L14.1399 50.0421V52.8848Z" fill="#DEF8FF"/>
<path fill-rule="evenodd" clip-rule="evenodd" d="M14.1399 55.7275L28.2351 41.9509V40.5295L14.1399 54.3061V55.7275Z" fill="#DEF8FF"/>
<path d="M29.706 57.9988H12.669V60.0765H29.706V57.9988Z" fill="#19A871"/>
<path fill-rule="evenodd" clip-rule="evenodd" d="M33.4568 52.8337H60.9246V35.3008C60.9246 23.1896 33.4568 23.3765 33.4568 35.3008V52.8337Z" fill="#19A871"/>
<path fill-rule="evenodd" clip-rule="evenodd" d="M34.9282 52.8919H59.4537V34.994C59.4537 25.4419 34.9282 25.2883 34.9282 34.994V52.8919Z" fill="#9FECFF"/>
<path fill-rule="evenodd" clip-rule="evenodd" d="M48.0975 44.8125L59.2742 33.6363C59.1537 33.1895 58.9733 32.7695 58.741 32.3741L48.0975 43.0171V44.8125ZM48.0975 41.2212V37.629L55.9479 29.7791C56.7351 30.2268 57.4206 30.7496 57.9728 31.3459L48.0975 41.2212ZM48.0975 35.8336V34.0377L53.4361 28.6996C53.8888 28.8446 54.3279 29.0059 54.7465 29.185L48.0975 35.8336ZM40.019 52.8919L48.0975 44.813V43.0175L38.2231 52.8919H40.019ZM48.0975 34.0372V35.8331L34.9277 49.0025V47.207L48.0975 34.0372ZM48.0975 37.629V41.2212L36.4272 52.8919H34.9282V50.7988L48.0975 37.629Z" fill="#DEF8FF"/>
<path fill-rule="evenodd" clip-rule="evenodd" d="M25.7779 4.69226H47.4507L53.5061 24.9792H19.7225L25.7779 4.69226Z" fill="#ED7351"/>
<path fill-rule="evenodd" clip-rule="evenodd" d="M27.766 6.62769H45.4621L51.2384 25.3738H21.9897L27.766 6.62769Z" fill="#47C796"/>
<path fill-rule="evenodd" clip-rule="evenodd" d="M28.6205 25.0039H44.398V14.9331C44.398 7.97641 28.6205 8.08368 28.6205 14.9331V25.0039Z" fill="#19A871"/>
<path fill-rule="evenodd" clip-rule="evenodd" d="M29.7883 23.8367H43.2299V14.8941C43.2299 9.65874 29.7883 9.5751 29.7883 14.8941V23.8367Z" fill="#9FECFF"/>
<path fill-rule="evenodd" clip-rule="evenodd" d="M37.5009 19.9262L43.1599 14.2668C43.1008 14.0022 43.0049 13.7531 42.8758 13.5195L37.5009 18.8949V19.9262ZM37.5009 17.8631V15.7999L41.2799 12.0204C41.7349 12.2763 42.1294 12.5763 42.4426 12.9213L37.5009 17.8631ZM37.5009 14.7686V13.7372L39.8272 11.4109C40.0899 11.4918 40.3435 11.5827 40.5854 11.6841L37.5009 14.7686ZM33.5905 23.8366L37.5009 19.9262V18.8944L32.5591 23.8366H33.5905ZM37.5009 13.7368V14.7681L29.7883 22.4807V21.4489L37.5009 13.7368ZM37.5009 15.7999V17.8631L31.5273 23.8366H29.7883V23.5121L37.5009 15.7999Z" fill="#DEF8FF"/>
</svg>
