<svg width="403" height="351" viewBox="0 0 403 351" fill="none" xmlns="http://www.w3.org/2000/svg">
<g  >
<path  d="M321.9 290.74C321.9 290.74 352.57 282.74 376.57 242.74C403.47 197.9 391.93 119.66 356.1 81.6499C322.86 46.3999 249.27 40.1999 206.57 57.3999C166.22 73.6599 135.23 112.74 110.57 118.07C85.91 123.4 55.23 114.74 21.9 151.4C-11.43 188.06 -4.10001 270.74 33.9 298.07C71.9 325.4 127.9 293.4 176.57 271.4C225.24 249.4 233.23 297.4 321.9 290.74Z" fill="#F16A49"/>
<g opacity="0.7">
<path opacity="0.7" d="M321.9 290.74C321.9 290.74 352.57 282.74 376.57 242.74C403.47 197.9 391.93 119.66 356.1 81.6499C322.86 46.3999 249.27 40.1999 206.57 57.3999C166.22 73.6599 135.23 112.74 110.57 118.07C85.91 123.4 55.23 114.74 21.9 151.4C-11.43 188.06 -4.10001 270.74 33.9 298.07C71.9 325.4 127.9 293.4 176.57 271.4C225.24 249.4 233.23 297.4 321.9 290.74Z" fill="white"/>
</g>
<path d="M311.74 210V209.94C303.58 207.23 291.06 208.15 289.2 209.26C287.223 210.584 285.524 212.282 284.2 214.26C279.805 220.495 276.654 227.52 274.92 234.95L186.17 243.2C182.9 236.14 177.97 229.81 173.02 225.99C171.606 224.806 169.976 223.906 168.22 223.34C167.447 223.247 166.665 223.274 165.9 223.42C162.68 214.09 158.12 205.09 152.42 204.52C140.42 203.32 119.48 207.34 113.77 218.98C108.06 230.62 106.27 259.68 106.27 259.68L102.27 263.68C99.3526 257.996 95.2948 252.975 90.35 248.93C88.9403 247.739 87.3091 246.838 85.55 246.28C84.55 246 80.55 246.62 76.36 247.99C76.19 247.83 76.03 247.67 75.85 247.52C71.85 244.17 63.65 242.34 59.07 250.88C54.49 259.42 59.99 275.59 62.73 279.25C64.0607 281.119 65.7294 282.724 67.65 283.98C70.88 291.98 76.65 302.18 85.53 302.65C88.5716 302.813 91.6129 302.321 94.4477 301.207C97.2824 300.092 99.8444 298.381 101.96 296.19C107.72 290.19 108.34 281.76 106.17 273.51L107.1 272.15C107.1 272.15 109.17 275.1 117.1 273.91C119.399 273.673 121.578 272.769 123.37 271.31C127.09 280.8 133.1 290.31 142.65 291.73C146.749 292.357 150.934 292.094 154.922 290.958C158.91 289.823 162.606 287.842 165.76 285.15C167.593 283.567 169.192 281.732 170.51 279.7C175.857 279.405 180.895 277.097 184.61 273.24C187.934 269.695 189.835 265.048 189.95 260.19L201.76 258.81C209.174 262.117 217.262 263.631 225.37 263.23C233.134 262.731 240.483 259.55 246.16 254.23L273.07 251.93C273.52 262.36 277.27 271.93 286.07 277.2C289.439 279.211 293.204 280.467 297.106 280.884C301.007 281.3 304.953 280.865 308.67 279.61C321.08 275.45 324.02 257.01 324.82 245.8C326.06 227.8 320.32 212.55 311.74 210Z" fill="#263238" stroke="#263238" stroke-width="0.75" stroke-linecap="round" stroke-linejoin="round"/>
<path d="M147.44 285.94C146.408 287.259 145.092 288.329 143.59 289.07" stroke="white" stroke-width="0.5" stroke-linecap="round" stroke-linejoin="round"/>
<path d="M152.29 262.24C152.29 262.24 153.48 275.24 149.05 283.49" stroke="white" stroke-width="0.5" stroke-linecap="round" stroke-linejoin="round"/>
<path d="M155.8 276.6C154.67 281.6 152.42 286.45 148.06 288.6" stroke="white" stroke-width="0.5" stroke-linecap="round" stroke-linejoin="round"/>
<path d="M161.23 261.25C161.23 261.25 163.23 282.86 152.54 288.08" stroke="white" stroke-width="0.5" stroke-linecap="round" stroke-linejoin="round"/>
<path d="M165.71 260.75C165.71 260.75 167.71 282.37 157.01 287.58" stroke="white" stroke-width="0.5" stroke-linecap="round" stroke-linejoin="round"/>
<path d="M300.62 275.9C299.471 277.351 298.043 278.558 296.42 279.45" stroke="white" stroke-width="0.5" stroke-linecap="round" stroke-linejoin="round"/>
<path d="M308.66 248.91C308.66 248.91 308.02 263.7 302.53 273.11" stroke="white" stroke-width="0.5" stroke-linecap="round" stroke-linejoin="round"/>
<path d="M310.09 265.29C308.29 270.98 305.41 276.5 300.86 278.9" stroke="white" stroke-width="0.5" stroke-linecap="round" stroke-linejoin="round"/>
<path d="M317.54 247.81C317.54 247.81 316.47 272.45 305.3 278.35" stroke="white" stroke-width="0.5" stroke-linecap="round" stroke-linejoin="round"/>
<path d="M322 247.27C322 247.27 320.93 271.9 309.76 277.81" stroke="white" stroke-width="0.5" stroke-linecap="round" stroke-linejoin="round"/>
<path d="M88.3501 299.31C87.4991 300.614 86.3769 301.719 85.0601 302.55" stroke="white" stroke-width="0.5" stroke-linecap="round" stroke-linejoin="round"/>
<path d="M89.9301 278.28C89.9301 278.28 92.7501 289.28 89.5701 296.97" stroke="white" stroke-width="0.5" stroke-linecap="round" stroke-linejoin="round"/>
<path d="M95.16 290.09C94.71 294.54 93.16 299.02 89.29 301.48" stroke="white" stroke-width="0.5" stroke-linecap="round" stroke-linejoin="round"/>
<path d="M98.37 276.14C98.37 276.14 103.07 294.39 93.51 300.4" stroke="white" stroke-width="0.5" stroke-linecap="round" stroke-linejoin="round"/>
<path d="M102.59 275.06C102.59 275.06 107.3 293.31 97.73 299.33" stroke="white" stroke-width="0.5" stroke-linecap="round" stroke-linejoin="round"/>
<path d="M137.06 254.83C139.44 268.44 137.95 280.08 133.75 280.83C129.55 281.58 124.2 271.12 121.82 257.51C119.44 243.9 120.93 232.26 125.14 231.51C129.35 230.76 134.68 241.21 137.06 254.83Z" fill="#F16A49" stroke="#263238" stroke-linecap="round" stroke-linejoin="round"/>
<path d="M134.94 255.12C135.6 260.34 134.99 264.71 133.56 264.89C132.13 265.07 130.45 260.99 129.79 255.77C129.13 250.55 129.79 246.17 131.17 245.99C132.55 245.81 134.28 249.9 134.94 255.12Z" fill="#F16A49" stroke="#263238" stroke-linecap="round" stroke-linejoin="round"/>
<path d="M124.91 242.64C125.052 240.888 125.329 239.149 125.74 237.44" stroke="#263238" stroke-width="0.75" stroke-linecap="round" stroke-linejoin="round"/>
<path d="M131.54 275.92C128.773 270.379 126.794 264.479 125.66 258.39C124.907 254.083 124.602 249.71 124.75 245.34" stroke="#263238" stroke-width="0.75" stroke-linecap="round" stroke-linejoin="round"/>
<path d="M78.2081 295.278C81.2312 294.44 81.4829 285.827 78.7704 276.039C76.0579 266.252 71.4083 258.996 68.3853 259.834C65.3623 260.672 65.1105 269.285 67.823 279.073C70.5355 288.861 75.1851 296.116 78.2081 295.278Z" fill="#F16A49" stroke="#263238" stroke-linecap="round" stroke-linejoin="round"/>
<path d="M77.7801 276.43C78.7301 280.15 78.6801 283.37 77.6601 283.63C76.6401 283.89 75.0601 281.08 74.1101 277.37C73.1601 273.66 73.2101 270.42 74.2301 270.17C75.2501 269.92 76.8301 272.71 77.7801 276.43Z" stroke="#263238" stroke-width="0.75" stroke-linecap="round" stroke-linejoin="round"/>
<path d="M69.4 268.3C69.3442 267.019 69.3877 265.735 69.53 264.46" stroke="#263238" stroke-width="0.75" stroke-linecap="round" stroke-linejoin="round"/>
<path d="M77.19 291.79C74.6895 288.028 72.7271 283.935 71.36 279.63C70.4256 276.582 69.809 273.445 69.52 270.27" stroke="#263238" stroke-width="0.75" stroke-linecap="round" stroke-linejoin="round"/>
<path d="M292.57 109C282.03 87.2501 277.48 85.3601 270.47 85.0001C263.46 84.6401 246.91 82.5801 228.47 85.5301C228.47 85.5301 177.03 84.6301 137.23 108.74C95.68 133.91 75.46 156.02 72.63 167.48C69.8 178.94 60.14 208.8 55.56 225.92C50.98 243.04 47.86 258.12 53.7 271.98C57.23 280.36 60.99 282.88 65.82 282.84C65.081 281.514 64.4296 280.141 63.87 278.73C59.07 266.84 59.65 249.83 65.13 248.73C70.61 247.63 73.88 259.02 77.19 271.44C77.847 274.178 78.7369 276.854 79.85 279.44C88.04 276.35 101.16 269.44 118.6 262.26C116.944 251.352 116.907 240.259 118.49 229.34C121.07 212.27 131.98 208.5 136.73 218.89C140.66 227.45 142.12 246.61 142.51 253.07C149.51 250.66 155.37 249.07 158.98 248.85C158.98 248.85 218.66 235.37 262.65 234.29C306.64 233.21 328.65 232.16 328.65 232.16C328.65 232.16 303.11 130.71 292.57 109Z" fill="white"/>
<path d="M151.93 213.94C151.93 213.94 145.88 222.22 138.52 223.99C141.12 233.53 142.19 247.65 142.52 252.99C148.77 250.84 154.08 249.33 157.72 248.89C158.25 245.77 158.57 243.78 158.57 243.78L151.93 213.94Z" fill="#F16A49"/>
<path opacity="0.2" d="M77.45 272.34C80.23 272.62 82.08 273.82 87.73 272.41C97.73 269.92 90.54 250.62 107.13 242.74C110.351 241.116 113.855 240.132 117.45 239.84C117.599 236.309 117.933 232.787 118.45 229.29C118.89 225.856 119.905 222.519 121.45 219.42C116.92 218.03 116.1 216.7 108.38 220.37C91.78 228.25 94.27 248.58 84.32 251.07C76.38 253.07 75.94 249.88 69.91 251.36C72.73 255.36 74.91 263.15 77.11 271.36C77.28 271.73 77.36 272 77.45 272.34Z" fill="#F16A49"/>
<g style="mix-blend-mode:multiply">
<g style="mix-blend-mode:multiply" opacity="0.2">
<path d="M61.12 255.25C56.47 258.45 53.7 263.25 52.12 267.3C52.5486 268.898 53.0763 270.468 53.7 272C57.23 280.38 60.99 282.9 65.82 282.86C65.081 281.534 64.4296 280.161 63.87 278.75C60.82 271.18 60 261.55 61.12 255.25Z" fill="#F16A49"/>
</g>
</g>
<g style="mix-blend-mode:multiply" opacity="0.2">
<path d="M270.47 85.0001L268.66 84.8901C195.73 103.55 166.06 191.45 155.85 233.81C156.4 238.02 157 242.15 157.65 246.17C158.89 245.93 158.03 248.85 158.98 248.8C158.98 248.8 218.66 235.32 262.65 234.24C306.64 233.16 328.65 232.11 328.65 232.11C328.65 232.11 303.11 130.71 292.57 109C282.03 87.2901 277.48 85.3201 270.47 85.0001Z" fill="#F16A49"/>
</g>
<path d="M292.57 109C282.03 87.2501 277.48 85.3601 270.47 85.0001C263.46 84.6401 246.91 82.5801 228.47 85.5301C228.47 85.5301 177.03 84.6301 137.23 108.74C95.68 133.91 75.46 156.02 72.63 167.48C69.8 178.94 60.14 208.8 55.56 225.92C50.98 243.04 47.86 258.12 53.7 271.98C57.23 280.36 60.99 282.88 65.82 282.84C65.081 281.514 64.4296 280.141 63.87 278.73C59.07 266.84 59.65 249.83 65.13 248.73C70.61 247.63 73.88 259.02 77.19 271.44C77.847 274.178 78.7369 276.854 79.85 279.44C88.04 276.35 101.16 269.44 118.6 262.26C116.944 251.352 116.907 240.259 118.49 229.34C121.07 212.27 131.98 208.5 136.73 218.89C140.66 227.45 142.12 246.61 142.51 253.07C149.51 250.66 155.37 249.07 158.98 248.85C158.98 248.85 218.66 235.37 262.65 234.29C306.64 233.21 328.65 232.16 328.65 232.16C328.65 232.16 303.11 130.71 292.57 109Z" stroke="#263238" stroke-linecap="round" stroke-linejoin="round"/>
<path opacity="0.2" d="M74.27 218.76C74.9565 219.331 75.792 219.694 76.678 219.806C77.5639 219.917 78.4633 219.773 79.27 219.39C82.42 218.13 82.74 213.39 82.74 213.39L87.46 213.08L88.41 198.27L78.01 202.36C78.01 202.36 75.22 216.87 74.27 218.76Z" fill="#F16A49"/>
<path d="M60.63 262.07C57.6439 263.657 54.8204 265.532 52.2 267.67C52.6146 269.135 53.1155 270.574 53.7 271.98C57.23 280.36 60.99 282.88 65.82 282.84C65.081 281.514 64.4296 280.141 63.87 278.73C61.8199 273.41 60.7232 267.77 60.63 262.07V262.07Z" fill="#263238" stroke="#263238" stroke-width="0.75" stroke-linecap="round" stroke-linejoin="round"/>
<path d="M76.56 253.81C76.2894 253.809 76.0241 253.735 75.7919 253.596C75.5597 253.457 75.369 253.258 75.24 253.02C75.058 252.674 75.0189 252.271 75.1311 251.897C75.2433 251.523 75.4979 251.208 75.84 251.02C76.08 250.89 95.54 238.83 111.66 230.26C111.834 230.167 112.025 230.11 112.221 230.091C112.417 230.072 112.615 230.092 112.803 230.149C112.992 230.207 113.167 230.301 113.319 230.426C113.471 230.552 113.597 230.706 113.69 230.88C113.783 231.054 113.84 231.244 113.859 231.441C113.878 231.637 113.858 231.835 113.8 232.023C113.743 232.212 113.649 232.387 113.523 232.539C113.398 232.691 113.244 232.817 113.07 232.91C96.96 241.47 77.51 253.52 77.27 253.65C77.0511 253.764 76.8065 253.819 76.56 253.81V253.81Z" fill="#263238" stroke="#263238" stroke-miterlimit="10"/>
<path d="M102 153.57L101.31 170.74C101.16 173.08 102.52 174.21 104.31 173.2L131.96 155.2C132.977 154.491 133.796 153.536 134.342 152.423C134.888 151.311 135.142 150.078 135.08 148.84L134.91 129.69C134.71 127.95 133.53 127.24 132.08 127.99C126.88 130.68 116.84 139.78 104.84 148.25C104.027 148.894 103.355 149.699 102.867 150.615C102.378 151.53 102.083 152.536 102 153.57V153.57Z" fill="#F16A49" stroke="#263238" stroke-linecap="round" stroke-linejoin="round"/>
<path d="M120.68 148.73L134.19 152.03" stroke="#263238" stroke-linecap="round" stroke-linejoin="round"/>
<path d="M102.2 173.28L110.54 154.86" stroke="#263238" stroke-linecap="round" stroke-linejoin="round"/>
<path d="M102.16 153L114.42 154.53C115.69 154.72 117.27 153.67 118.42 151.85L134.42 128.94" stroke="#263238" stroke-linecap="round" stroke-linejoin="round"/>
<path d="M170.61 121.67L173.45 164.67C173.524 165.911 173.849 167.124 174.407 168.235C174.965 169.347 175.744 170.332 176.696 171.132C177.648 171.933 178.753 172.53 179.943 172.889C181.133 173.248 182.385 173.361 183.62 173.22L279.14 160.82C280.456 160.668 281.723 160.233 282.855 159.543C283.986 158.854 284.954 157.927 285.692 156.827C286.43 155.727 286.92 154.479 287.128 153.171C287.337 151.863 287.259 150.525 286.9 149.25L274.84 106.61C274.269 104.584 273.016 102.817 271.292 101.608C269.568 100.4 267.48 99.8249 265.38 99.9798C249.9 101.12 212.77 104.45 177.72 112.26C175.616 112.738 173.748 113.945 172.447 115.666C171.146 117.388 170.495 119.515 170.61 121.67V121.67Z" fill="#F16A49" stroke="#263238" stroke-linecap="round" stroke-linejoin="round"/>
<path d="M241.61 135L285.22 155.66" stroke="#263238" stroke-linecap="round" stroke-linejoin="round"/>
<path d="M177.07 171.33L213.9 138.37" stroke="#263238" stroke-linecap="round" stroke-linejoin="round"/>
<path d="M170.93 120.54L223.78 142.27C225.764 143.081 227.941 143.298 230.047 142.895C232.152 142.492 234.095 141.486 235.64 140L273.31 104.43" stroke="#263238" stroke-linecap="round" stroke-linejoin="round"/>
<path d="M276.477 166.906C285.454 166.685 292.556 159.354 292.339 150.531C292.121 141.708 284.668 134.735 275.69 134.956C266.713 135.177 259.611 142.508 259.828 151.331C260.046 160.154 267.499 167.127 276.477 166.906Z" fill="#263238" stroke="#263238" stroke-width="0.75" stroke-linecap="round" stroke-linejoin="round"/>
<path d="M213.93 201.66C213.93 201.66 247.93 195.14 271.23 195.6L272.63 201.2C272.63 201.2 223.71 203.52 214.39 208.2L213.93 201.66Z" fill="#263238" stroke="#263238" stroke-width="0.75" stroke-linecap="round" stroke-linejoin="round"/>
<path d="M214.39 208.18L215.39 213.78C215.493 214.404 215.837 214.963 216.347 215.337C216.858 215.711 217.494 215.87 218.12 215.78C226.65 214.56 256.59 210.45 272.12 210.83C272.503 210.842 272.882 210.763 273.229 210.6C273.575 210.437 273.878 210.195 274.113 209.893C274.348 209.591 274.508 209.237 274.581 208.861C274.653 208.486 274.636 208.098 274.53 207.73L272.67 201.22" stroke="#263238" stroke-linecap="round" stroke-linejoin="round"/>
<path d="M90.32 198.29L90.13 175.19L91.28 151.44C91.2886 151.213 91.2284 150.988 91.1074 150.796C90.9864 150.603 90.8102 150.452 90.6017 150.361C90.3933 150.27 90.1623 150.245 89.9389 150.287C89.7156 150.33 89.5104 150.439 89.35 150.6C85.05 155 77.69 161.66 75.51 167.12C72.68 174.19 69.33 208.99 69.33 208.99L90.32 198.29Z" fill="#263238" stroke="#263238" stroke-width="0.75" stroke-linecap="round" stroke-linejoin="round"/>
<path d="M63.69 193.65H60.34C58.6334 193.65 57.25 195.033 57.25 196.74V214C57.25 215.706 58.6334 217.09 60.34 217.09H63.69C65.3966 217.09 66.78 215.706 66.78 214V196.74C66.78 195.033 65.3966 193.65 63.69 193.65Z" fill="#263238" stroke="#263238" stroke-width="0.75" stroke-linecap="round" stroke-linejoin="round"/>
<path d="M65.8 177.53C67.3859 177.834 68.9346 178.307 70.42 178.94C71.6517 179.546 72.7711 180.358 73.73 181.34L78.73 174.73C78.73 174.73 71.4 171.66 70.01 169.79L68.63 167.91L65.8 177.53Z" fill="white"/>
<g style="mix-blend-mode:multiply" opacity="0.5">
<path d="M70 169.79L68.71 168L68.56 168.1L65.8 177.5C65.8 177.5 66.33 177.6 67.08 177.78L74.23 172.6C72.6674 171.916 71.236 170.965 70 169.79V169.79Z" fill="#F16A49"/>
</g>
<path d="M65.8 177.53C67.3859 177.834 68.9346 178.307 70.42 178.94C71.6517 179.546 72.7711 180.358 73.73 181.34L78.73 174.73C78.73 174.73 71.4 171.66 70.01 169.79L68.63 167.91L65.8 177.53Z" stroke="#263238" stroke-width="0.75" stroke-linecap="round" stroke-linejoin="round"/>
<path d="M76.36 171.92L70.25 179.71L71.08 182.36L80.39 172.69L76.36 171.92Z" fill="#F16A49" stroke="#263238" stroke-linecap="round" stroke-linejoin="round"/>
<path d="M66.58 149.91C62.45 146.71 51.69 148.75 49.58 156.33C48.28 161 49 168 49 168L61.26 165.4L62.26 166.91C64.26 169.91 68.59 167.91 69.71 166.91C70.32 166.38 70.28 164.82 70.12 163.53L70.61 163.42C70.61 163.42 70.7 153.12 66.58 149.91Z" fill="#263238" stroke="#263238" stroke-width="0.75" stroke-linecap="round" stroke-linejoin="round"/>
<path d="M62 164.48C56.6189 163.881 51.172 164.398 46 166C38 168.68 36.77 171 42.5 170.86C48.23 170.72 62 164.48 62 164.48Z" fill="#263238" stroke="#263238" stroke-width="0.75" stroke-linecap="round" stroke-linejoin="round"/>
<path d="M52.1201 161.57C53.0534 161.57 53.8101 160.536 53.8101 159.26C53.8101 157.984 53.0534 156.95 52.1201 156.95C51.1867 156.95 50.4301 157.984 50.4301 159.26C50.4301 160.536 51.1867 161.57 52.1201 161.57Z" fill="#F16A49"/>
<path d="M90.13 175.19C90.13 175.19 79.18 172.41 75.81 174.97C72.44 177.53 71.58 181.76 72.66 186.89C73.74 192.02 76.37 205.51 76.37 205.51L90.32 198.29L90.13 175.19Z" fill="#263238" stroke="#263238" stroke-width="0.75" stroke-linecap="round" stroke-linejoin="round"/>
<path d="M72.75 203.36C72.75 203.36 72.16 208.54 71.47 209.27C70.78 210 52.58 194.71 51.47 193.27C50.36 191.83 51.12 186.69 51.47 185.08C51.82 183.47 51.23 182.59 49.47 183.7C47.71 184.81 48.18 189.43 48.18 189.43C48.18 189.43 42.81 188.14 41.74 187.99C40.67 187.84 39.74 189.17 39.9 190.23C40.06 191.29 41.47 191.38 41.47 191.38C41.1092 192.915 41.2101 194.522 41.76 196C42.7 197.94 43.76 199.16 45.76 199.64C47.8235 199.962 49.9127 200.089 52 200.02C52 200.02 61.3 208.88 64 212.19C66.7 215.5 72.39 220 75.22 219.19C78.05 218.38 80.75 204.25 80.75 204.25L72.75 203.36Z" fill="white"/>
<g style="mix-blend-mode:multiply" opacity="0.5">
<path d="M71.47 209.27L76.79 211.04C76.9587 212.156 76.7229 213.295 76.125 214.253C75.5272 215.21 74.6068 215.922 73.53 216.26C71.18 217.04 66.96 214.37 63.96 212.12L64.05 212.23C66.8 215.55 72.44 220.04 75.27 219.23C78.1 218.42 80.8 204.29 80.8 204.29L72.75 203.29C72.75 203.29 72.16 208.54 71.47 209.27Z" fill="#F16A49"/>
</g>
<path d="M72.75 203.36C72.75 203.36 72.16 208.54 71.47 209.27C70.78 210 52.58 194.71 51.47 193.27C50.36 191.83 51.12 186.69 51.47 185.08C51.82 183.47 51.23 182.59 49.47 183.7C47.71 184.81 48.18 189.43 48.18 189.43C48.18 189.43 42.81 188.14 41.74 187.99C40.67 187.84 39.74 189.17 39.9 190.23C40.06 191.29 41.47 191.38 41.47 191.38C41.1092 192.915 41.2101 194.522 41.76 196C42.7 197.94 43.76 199.16 45.76 199.64C47.8235 199.962 49.9127 200.089 52 200.02C52 200.02 61.3 208.88 64 212.19C66.7 215.5 72.39 220 75.22 219.19C78.05 218.38 80.75 204.25 80.75 204.25L72.75 203.36Z" stroke="#263238" stroke-width="0.75" stroke-linecap="round" stroke-linejoin="round"/>
<path d="M54.56 196.08L52 200.06L53.31 200.95L55.93 197.2L54.56 196.08Z" fill="#263238" stroke="#263238" stroke-miterlimit="10"/>
<path d="M53.6801 199.83C54.2323 199.83 54.6801 199.382 54.6801 198.83C54.6801 198.278 54.2323 197.83 53.6801 197.83C53.1278 197.83 52.6801 198.278 52.6801 198.83C52.6801 199.382 53.1278 199.83 53.6801 199.83Z" fill="white" stroke="#263238" stroke-width="0.75" stroke-linecap="round" stroke-linejoin="round"/>
<path d="M51.23 169.28C51.23 169.28 51.84 170.79 52.86 173.44C53.88 176.09 59.36 181.68 62.04 182C64.72 182.32 67.93 172.58 68.44 170.57C68.61 169.91 68.78 168.85 68.78 168.85C68.78 168.85 72.15 167.26 71.37 165.34C70.59 163.42 69.01 162.54 68.26 163.13C67.51 163.72 67.38 166.21 66.26 166.23C65.14 166.25 64.53 165.9 63.54 164.58C62.55 163.26 52.29 166 51.23 169.28Z" fill="white"/>
<path opacity="0.5" d="M63.52 164.58C62.52 163.27 52.29 166.01 51.23 169.28L51.81 170.76C55.7205 168.402 59.97 166.658 64.41 165.59C64.0783 165.286 63.7799 164.947 63.52 164.58V164.58Z" fill="#F16A49"/>
<g style="mix-blend-mode:multiply">
<g style="mix-blend-mode:multiply" opacity="0.5">
<path d="M71.24 165.07C70.42 163.35 68.97 162.57 68.24 163.13C67.7824 163.727 67.443 164.406 67.24 165.13C68.5683 164.981 69.9078 164.961 71.24 165.07V165.07Z" fill="#F16A49"/>
</g>
</g>
<path d="M51.23 169.28C51.23 169.28 51.84 170.79 52.86 173.44C53.88 176.09 59.36 181.68 62.04 182C64.72 182.32 67.93 172.58 68.44 170.57C68.61 169.91 68.78 168.85 68.78 168.85C68.78 168.85 72.15 167.26 71.37 165.34C70.59 163.42 69.01 162.54 68.26 163.13C67.51 163.72 67.38 166.21 66.26 166.23C65.14 166.25 64.53 165.9 63.54 164.58C62.55 163.26 52.29 166 51.23 169.28Z" stroke="#263238" stroke-width="0.75" stroke-linecap="round" stroke-linejoin="round"/>
<path d="M54.86 170C55.04 170.61 54.98 171.17 54.74 171.24C54.5 171.31 54.15 170.87 53.97 170.24C53.79 169.61 53.85 169.07 54.09 169C54.33 168.93 54.68 169.41 54.86 170Z" fill="#263238" stroke="#263238" stroke-miterlimit="10"/>
<path d="M53 168.3C54.4 167.9 55 168.95 55.17 169.92L55.43 171.07L56.3 175.52L57.62 174.96" stroke="#263238" stroke-width="0.5" stroke-linecap="round" stroke-linejoin="round"/>
<path d="M58.7 168.64C59.0041 168.306 59.3826 168.049 59.8049 167.889C60.2271 167.729 60.6811 167.671 61.13 167.72" stroke="#263238" stroke-width="0.5" stroke-linecap="round" stroke-linejoin="round"/>
<path d="M59.86 165.87C59.2911 165.989 58.769 166.271 58.3572 166.681C57.9453 167.091 57.6614 167.612 57.54 168.18" stroke="#263238" stroke-width="0.5" stroke-linecap="round" stroke-linejoin="round"/>
<path d="M58.8101 176.4C58.8101 176.4 61.7101 175.82 61.9401 173.74" stroke="#263238" stroke-width="0.5" stroke-linecap="round" stroke-linejoin="round"/>
<path d="M83.43 210.86L68.79 206.78C68.79 206.78 70.08 181.78 72.34 177.55C75.86 170.98 83.93 173.94 85.45 182.2C86.87 190 83.43 210.86 83.43 210.86Z" fill="#F16A49" stroke="#263238" stroke-linecap="round" stroke-linejoin="round"/>
<path d="M69.14 204C69.14 204 77.14 205.84 82.01 207.44" stroke="#263238" stroke-width="0.5" stroke-linecap="round" stroke-linejoin="round"/>
<path d="M81.8101 173.18C81.8101 173.18 86.5701 173.55 89.6801 176.11" stroke="#F16A49" stroke-width="0.5" stroke-linecap="round" stroke-linejoin="round"/>
<path d="M165.69 237.13C165.69 237.13 144.37 244.65 142.42 246.7C140.47 248.75 140.67 256.75 145.27 260.64C149.87 264.53 182.66 255.71 206.1 253.14C229.54 250.57 281 246.79 302 245.77C323 244.75 332.55 247.52 334.39 240.97C336.23 234.42 336 227.42 332 226C328 224.58 255.12 212.91 165.69 237.13Z" fill="#263238" stroke="#263238" stroke-width="0.75" stroke-linecap="round" stroke-linejoin="round"/>
<path d="M140.9 251.07C140.9 251.07 141.9 259.74 147.23 261.07C152.56 262.4 215.9 250.4 253.23 249.07C290.56 247.74 323.23 246.74 323.23 246.74" stroke="white" stroke-width="0.5" stroke-linecap="round" stroke-linejoin="round"/>
<path d="M171.84 255.47C196.6 249.47 247.53 240.99 333.23 243.4" stroke="white" stroke-width="0.5" stroke-linecap="round" stroke-linejoin="round"/>
<path d="M151.54 260.75C151.54 260.75 157.23 259.37 165.88 257.01" stroke="white" stroke-width="0.5" stroke-linecap="round" stroke-linejoin="round"/>
<path d="M156.76 261.74C157.029 265.458 156.929 269.193 156.46 272.89" stroke="white" stroke-width="0.5" stroke-linecap="round" stroke-linejoin="round"/>
<path d="M155.85 101.83C155.85 101.83 151.08 107.42 150.71 112.43" stroke="#263238" stroke-width="0.75" stroke-linecap="round" stroke-linejoin="round"/>
<path d="M150.21 116.47C150.21 116.47 146.62 173.58 156.12 234.36" stroke="#263238" stroke-width="0.75" stroke-linecap="round" stroke-linejoin="round"/>
<path d="M151.34 182.46C151.34 182.46 143.59 185.16 143.49 188.66C143.23 198.07 144.22 218.15 146.27 220.1C148.32 222.05 154.69 216.89 154.69 216.89C154.69 216.89 163.69 217.67 164.69 215.65C165.69 213.63 161.94 185.2 161.38 182.72C160.82 180.24 151.34 182.46 151.34 182.46Z" fill="#F16A49" stroke="#263238" stroke-linecap="round" stroke-linejoin="round"/>
<path d="M313.22 196C315.237 196.986 317.429 197.563 319.67 197.7C317.19 188.38 314.38 178 311.48 167.64C308.86 167.46 305.48 167.46 305.55 168.64C305.6 170.66 310.69 194.54 313.22 196Z" fill="#F16A49" stroke="#263238" stroke-linecap="round" stroke-linejoin="round"/>
<path d="M150.23 185.4C150.23 185.4 150.57 203.4 151.9 210.4" stroke="#263238" stroke-width="0.75" stroke-linecap="round" stroke-linejoin="round"/>
<path d="M243.71 189.56C243.71 189.56 288.33 182.37 340.32 191.56" stroke="#263238" stroke-linecap="round" stroke-linejoin="round"/>
<path d="M379.55 217.75C382.62 218.67 385.64 219.64 388.55 220.68" stroke="#263238" stroke-linecap="round" stroke-linejoin="round"/>
<path d="M299.44 204.17C299.44 204.17 334.82 206.32 368.7 214.79" stroke="#263238" stroke-linecap="round" stroke-linejoin="round"/>
<path d="M191.76 286.56C220.892 282.108 250.488 281.58 279.76 284.99" stroke="#263238" stroke-linecap="round" stroke-linejoin="round"/>
<path d="M188.1 281.85C188.1 281.85 209.04 279.23 215.85 278.71" stroke="#263238" stroke-linecap="round" stroke-linejoin="round"/>
<path d="M328.34 87.6299C331.34 88.0599 334.34 88.6299 337.06 89.2799" stroke="#263238" stroke-linecap="round" stroke-linejoin="round"/>
<path d="M285.23 86.6401C297.551 85.7697 309.922 85.8533 322.23 86.8901" stroke="#263238" stroke-linecap="round" stroke-linejoin="round"/>
<path d="M123.89 207.78C123.89 207.78 153.77 193.63 197 189.7" stroke="#263238" stroke-linecap="round" stroke-linejoin="round"/>
<path d="M174.21 181.83C174.21 181.83 192.3 177.12 219.82 175.54" stroke="#263238" stroke-linecap="round" stroke-linejoin="round"/>
<path d="M123.4 281.74C127.031 288.244 132.891 293.216 139.9 295.74" stroke="#263238" stroke-linecap="round" stroke-linejoin="round"/>
<path d="M122.4 286.24C122.4 286.24 126.9 293.24 132.9 296.24" stroke="#263238" stroke-linecap="round" stroke-linejoin="round"/>
<path d="M269.9 261.24C269.9 261.24 272.9 275.24 284.9 281.24" stroke="#263238" stroke-linecap="round" stroke-linejoin="round"/>
<path d="M271.4 273.74C273.778 277.223 277.063 279.99 280.9 281.74" stroke="#263238" stroke-linecap="round" stroke-linejoin="round"/>
<path d="M73.5601 300.7C73.5601 300.7 76.5601 305.7 87.0601 305.7" stroke="#263238" stroke-linecap="round" stroke-linejoin="round"/>
<path d="M71.5601 303.7C75.3854 306.881 80.1007 308.802 85.0601 309.2" stroke="#263238" stroke-linecap="round" stroke-linejoin="round"/>
<path d="M206.74 291.36C180.182 292.804 153.818 296.749 128 303.14L128.62 304.07C128.62 304.07 150.62 299.4 191.28 309.4C231.94 319.4 234.62 327.4 279.28 327.4C323.94 327.4 367.28 316.74 367.28 316.74L361.86 313.74C321.76 296.77 266.8 288 206.74 291.36Z" fill="#F16A49"/>
<path opacity="0.5" d="M206.74 291.36C180.182 292.804 153.818 296.749 128 303.14L128.62 304.07C128.62 304.07 150.62 299.4 191.28 309.4C231.94 319.4 234.62 327.4 279.28 327.4C323.94 327.4 367.28 316.74 367.28 316.74L361.86 313.74C321.76 296.77 266.8 288 206.74 291.36Z" fill="white"/>
<path d="M108.9 314.24C108.9 314.24 161.4 306.24 206.9 336.74" stroke="#263238" stroke-linecap="round" stroke-linejoin="round"/>
<path d="M163.9 325.74C163.9 325.74 185.4 332.24 198.4 346.24" stroke="#263238" stroke-linecap="round" stroke-linejoin="round"/>
<path d="M290.9 300.24C290.9 300.24 321.4 303.24 348.9 319.74" stroke="#263238" stroke-linecap="round" stroke-linejoin="round"/>
<path d="M386 326.08C391.492 329.441 396.721 333.215 401.64 337.37" stroke="#263238" stroke-linecap="round" stroke-linejoin="round"/>
<path d="M28.21 349.67C64.66 318.67 130.52 295.67 206.74 291.36C276.31 287.41 339.06 299.87 379.74 322.36" stroke="#263238" stroke-linecap="round" stroke-linejoin="round"/>
<path d="M250.4 299.74C250.4 299.74 281.9 301.24 302.9 308.24" stroke="#263238" stroke-linecap="round" stroke-linejoin="round"/>
<path d="M107.58 62.3403C107.58 62.3403 106.58 48.5103 86.33 48.0103C66.08 47.5103 71.5 61.8503 66.07 65.3103C60.64 68.7703 59.15 63.3103 53.71 66.7903C48.27 70.2703 50.71 77.1703 46.3 78.1603C41.89 79.1503 35.92 73.7103 30.49 77.1603C25.06 80.6103 25.05 83.5803 22.58 83.5803C20.11 83.5803 15.17 81.5803 12.21 83.5803C9.25003 85.5803 5.78003 88.0003 5.78003 88.0003H130.78C130.78 88.0003 132.26 83.5503 126.78 80.5903C121.3 77.6303 118.87 80.0903 116.9 77.5903C114.93 75.0903 122.4 68.7703 107.58 62.3403Z" fill="#F16A49"/>
<path d="M181.85 9.41011C181.85 9.41011 181.25 1.0901 169.07 0.790105C156.89 0.490105 160.15 9.1201 156.88 11.2001C153.61 13.2801 152.72 10.0101 149.45 12.0901C146.18 14.1701 147.67 18.3301 144.99 18.9201C142.31 19.5101 138.75 16.2501 135.48 18.3301C132.21 20.4101 132.21 22.1901 130.72 22.1901C129.23 22.1901 126.26 21.0101 124.48 22.1901C122.7 23.3701 120.62 24.8701 120.62 24.8701H195.82C195.82 24.8701 196.71 22.1901 193.44 20.4101C190.17 18.6301 188.69 20.1101 187.5 18.6301C186.31 17.1501 190.77 13.2801 181.85 9.41011Z" fill="#F16A49"/>
<path opacity="0.7" d="M107.58 62.3403C107.58 62.3403 106.58 48.5103 86.33 48.0103C66.08 47.5103 71.5 61.8503 66.07 65.3103C60.64 68.7703 59.15 63.3103 53.71 66.7903C48.27 70.2703 50.71 77.1703 46.3 78.1603C41.89 79.1503 35.92 73.7103 30.49 77.1603C25.06 80.6103 25.05 83.5803 22.58 83.5803C20.11 83.5803 15.17 81.5803 12.21 83.5803C9.25003 85.5803 5.78003 88.0003 5.78003 88.0003H130.78C130.78 88.0003 132.26 83.5503 126.78 80.5903C121.3 77.6303 118.87 80.0903 116.9 77.5903C114.93 75.0903 122.4 68.7703 107.58 62.3403Z" fill="white"/>
<path opacity="0.8" d="M181.85 9.41011C181.85 9.41011 181.25 1.0901 169.07 0.790105C156.89 0.490105 160.15 9.1201 156.88 11.2001C153.61 13.2801 152.72 10.0101 149.45 12.0901C146.18 14.1701 147.67 18.3301 144.99 18.9201C142.31 19.5101 138.75 16.2501 135.48 18.3301C132.21 20.4101 132.21 22.1901 130.72 22.1901C129.23 22.1901 126.26 21.0101 124.48 22.1901C122.7 23.3701 120.62 24.8701 120.62 24.8701H195.82C195.82 24.8701 196.71 22.1901 193.44 20.4101C190.17 18.6301 188.69 20.1101 187.5 18.6301C186.31 17.1501 190.77 13.2801 181.85 9.41011Z" fill="white"/>
<path fill-rule="evenodd" clip-rule="evenodd" d="M273.064 153.942L279.933 147.073L279.986 147.02C280.399 146.588 280.391 145.906 279.969 145.484C279.766 145.276 279.489 145.159 279.198 145.157C278.908 145.155 278.629 145.27 278.424 145.475L275.745 148.155L273.307 145.717C272.878 145.288 272.182 145.288 271.753 145.718C271.324 146.147 271.324 146.842 271.753 147.271L274.19 149.709L271.511 152.388C271.087 152.813 271.086 153.5 271.511 153.924C271.937 154.352 272.628 154.359 273.064 153.942ZM278.568 154.122L277.675 153.229L277.586 153.14C277.387 152.927 277.28 152.643 277.29 152.352C277.3 152.06 277.426 151.785 277.639 151.586C277.851 151.383 278.135 151.275 278.428 151.285C278.72 151.295 278.996 151.423 279.193 151.639L280.176 152.622C280.375 152.835 280.481 153.119 280.471 153.41C280.461 153.702 280.336 153.977 280.122 154.176C279.676 154.584 278.985 154.56 278.568 154.122Z" fill="#F16A49"/>
</g>

</svg>
