<svg width="70" height="70" viewBox="0 0 70 70" fill="none" xmlns="http://www.w3.org/2000/svg">
<circle cx="35" cy="35" r="35" fill="#39A3DB" fill-opacity="0.7"/>
<path d="M46.0431 30.7835H25.1834C23.6004 30.7835 22.5563 29.1285 23.2391 27.6995L28.9855 15.6749C29.3434 14.926 30.0997 14.4492 30.9298 14.4492H40.2968C41.1268 14.4492 41.8831 14.926 42.2411 15.6749L47.9875 27.6995C48.6698 29.1278 47.6267 30.7835 46.0431 30.7835Z" fill="#48AEE2"/>
<path d="M47.9874 27.6994L42.241 15.6747C41.8829 14.9258 41.1268 14.449 40.2967 14.449H35.6131V30.7834H46.0431C47.626 30.7834 48.6701 29.1284 47.9874 27.6994Z" fill="#39A3DB"/>
<path d="M42.4516 63.1539H28.7749C25.6064 63.1539 23.0285 60.5761 23.0285 57.4075V28.6288C23.0285 27.4387 23.9933 26.4739 25.1834 26.4739H46.043C47.2332 26.4739 48.1979 27.4387 48.1979 28.6288V57.4076C48.1978 60.5761 45.6201 63.1539 42.4516 63.1539Z" fill="#3797D3"/>
<path d="M46.043 26.4739H35.6131V63.1541H42.4516C45.6201 63.1541 48.198 60.5764 48.198 57.4078V28.6288C48.1979 27.4387 47.2331 26.4739 46.043 26.4739Z" fill="#4881C2"/>
<path d="M41.1412 18.7589H30.0852C28.895 18.7589 27.9303 17.7941 27.9303 16.604V9.9242C27.9303 8.73408 28.895 7.76929 30.0852 7.76929H41.1413C42.3314 7.76929 43.2962 8.73408 43.2962 9.9242V16.604C43.2961 17.7941 42.3313 18.7589 41.1412 18.7589Z" fill="#3797D3"/>
<path d="M41.1412 7.76929H35.6132V18.7589H41.1412C42.3313 18.7589 43.2961 17.7941 43.2961 16.604V9.9242C43.2961 8.73408 42.3313 7.76929 41.1412 7.76929Z" fill="#4881C2"/>
<path d="M48.1978 55.3727H23.0285V34.2549H48.1979V55.3727H48.1978Z" fill="#65C6BB"/>
<path d="M48.1971 34.2556H35.6126V55.3734H48.1971V34.2556Z" fill="#57BDB7"/>
<path d="M39.8943 46.381C39.8943 48.7454 37.9776 50.6621 35.6132 50.6621C33.2489 50.6621 31.3322 48.7454 31.3322 46.381C31.3322 44.6499 33.627 41.3936 34.8562 39.7735C35.2367 39.2721 35.9896 39.2721 36.37 39.7735C37.5994 41.3935 39.8943 44.6499 39.8943 46.381Z" fill="#48AEE2"/>
<path d="M36.37 39.7734C36.1798 39.5227 35.8965 39.3975 35.6132 39.3975V50.6622C37.9776 50.6622 39.8943 48.7454 39.8943 46.3811C39.8943 44.6499 37.5994 41.3937 36.37 39.7734Z" fill="#39A3DB"/>
</svg>
